<svg xmlns="http://www.w3.org/2000/svg" viewBox="0 0 960 700" width="960" height="700">
  <defs>
    <style>
      text { font-family: 'Segoe UI', 'Helvetica Neue', Arial, sans-serif; }
    </style>
  </defs>
  
  <!-- Background -->
  <rect width="960" height="700" rx="14" fill="#f8f9fb" stroke="#d0d7de" stroke-width="1"/>
  
  <!-- Title -->
  <text x="27" y="38" font-size="26" font-weight="700" fill="#1a1a2e">🧑‍💻 gjchentw — Technical Skills</text>
  <text x="27" y="60" font-size="13" fill="#57606a">Based on GitHub activity: 12 repositories · 120+ commits · Past 6 months (Sep 2025 – Mar 2026)</text>
  <text x="27" y="80" font-size="11" fill="#8b949e">Square Pie Chart — Area is proportional to technology usage percentage</text>

  <rect x="26.5" y="96.5" width="452.0" height="345.0" rx="6" fill="#4963b8"/>
  <rect x="26.5" y="96.5" width="452.0" height="345.0" rx="6" fill="none" stroke="rgba(255,255,255,0.15)" stroke-width="1"/>
  <text x="36.5" y="128.5" font-size="24" font-weight="700" fill="#ffffff">Lean 4</text>
  <text x="36.5" y="157.5" font-size="20" font-weight="600" fill="rgba(255,255,255,0.85)">30%</text>
  <text x="36.5" y="185.5" font-size="12" fill="rgba(255,255,255,0.7)">Formal Verification</text>
  <text x="36.5" y="200.5" font-size="12" fill="rgba(255,255,255,0.7)">&amp; Math Proofs</text>
  <text x="36.5" y="221.5" font-size="12" font-style="italic" fill="rgba(255,255,255,0.7)">lean-triangle · lean-pythagorean</text>
  <text x="36.5" y="236.5" font-size="12" font-style="italic" fill="rgba(255,255,255,0.7)">Monopylean · NaturalNumberGame</text>
  <rect x="26.5" y="444.5" width="452.0" height="229.0" rx="6" fill="#d4a017"/>
  <rect x="26.5" y="444.5" width="452.0" height="229.0" rx="6" fill="none" stroke="rgba(255,255,255,0.15)" stroke-width="1"/>
  <text x="36.5" y="476.5" font-size="24" font-weight="700" fill="#1a1a2e">JavaScript</text>
  <text x="36.5" y="503.5" font-size="24" font-weight="700" fill="#1a1a2e">/ TypeScript</text>
  <text x="36.5" y="532.5" font-size="20" font-weight="600" fill="rgba(26,26,46,0.75)">20%</text>
  <text x="36.5" y="560.5" font-size="12" fill="rgba(26,26,46,0.6)">OPFS · Vite · Jest</text>
  <text x="36.5" y="575.5" font-size="12" fill="rgba(26,26,46,0.6)">Web Workers · npm</text>
  <text x="36.5" y="596.5" font-size="12" font-style="italic" fill="rgba(26,26,46,0.6)">opfs-cloud-file</text>
  <rect x="481.5" y="96.5" width="249.8" height="310.2" rx="6" fill="#c75b1e"/>
  <rect x="481.5" y="96.5" width="249.8" height="310.2" rx="6" fill="none" stroke="rgba(255,255,255,0.15)" stroke-width="1"/>
  <text x="491.5" y="128.5" font-size="24" font-weight="700" fill="#ffffff">Java / Gradle</text>
  <text x="491.5" y="157.5" font-size="20" font-weight="600" fill="rgba(255,255,255,0.85)">15%</text>
  <text x="491.5" y="185.5" font-size="12" fill="rgba(255,255,255,0.7)">Minecraft Spigot</text>
  <text x="491.5" y="200.5" font-size="12" fill="rgba(255,255,255,0.7)">Plugin · JUnit 5</text>
  <text x="491.5" y="221.5" font-size="12" font-style="italic" fill="rgba(255,255,255,0.7)">Welcome</text>
  <rect x="734.3" y="96.5" width="199.2" height="310.2" rx="6" fill="#00a29a"/>
  <rect x="734.3" y="96.5" width="199.2" height="310.2" rx="6" fill="none" stroke="rgba(255,255,255,0.15)" stroke-width="1"/>
  <text x="744.3" y="128.5" font-size="24" font-weight="700" fill="#ffffff">Go</text>
  <text x="744.3" y="157.5" font-size="20" font-weight="600" fill="rgba(255,255,255,0.85)">12%</text>
  <text x="744.3" y="185.5" font-size="12" fill="rgba(255,255,255,0.7)">WebSocket · HTTP</text>
  <text x="744.3" y="200.5" font-size="12" fill="rgba(255,255,255,0.7)">Server · Gin</text>
  <text x="744.3" y="221.5" font-size="12" font-style="italic" fill="rgba(255,255,255,0.7)">go-kittyd</text>
  <rect x="481.5" y="409.7" width="135.5" height="263.8" rx="6" fill="#3d8b37"/>
  <rect x="481.5" y="409.7" width="135.5" height="263.8" rx="6" fill="none" stroke="rgba(255,255,255,0.15)" stroke-width="1"/>
  <text x="491.5" y="437.7" font-size="20" font-weight="700" fill="#ffffff">Shell / CI-CD</text>
  <text x="491.5" y="462.7" font-size="17" font-weight="600" fill="rgba(255,255,255,0.85)">7%</text>
  <text x="491.5" y="487.7" font-size="11" fill="rgba(255,255,255,0.7)">Automation</text>
  <text x="491.5" y="507.7" font-size="11" font-style="italic" fill="rgba(255,255,255,0.7)">GitHub Actions</text>
  <rect x="620.0" y="409.7" width="214.6" height="142.5" rx="6" fill="#1a73c7"/>
  <rect x="620.0" y="409.7" width="214.6" height="142.5" rx="6" fill="none" stroke="rgba(255,255,255,0.15)" stroke-width="1"/>
  <text x="630.0" y="437.7" font-size="20" font-weight="700" fill="#ffffff">Docker</text>
  <text x="630.0" y="460.7" font-size="20" font-weight="700" fill="#ffffff">/ DevOps</text>
  <text x="630.0" y="485.7" font-size="17" font-weight="600" fill="rgba(255,255,255,0.85)">6%</text>
  <text x="630.0" y="510.7" font-size="11" fill="rgba(255,255,255,0.7)">Compose</text>
  <text x="630.0" y="524.7" font-size="11" fill="rgba(255,255,255,0.7)">DevContainers</text>
  <text x="630.0" y="544.7" font-size="11" font-style="italic" fill="rgba(255,255,255,0.7)">compose-php</text>
  <rect x="620.0" y="555.2" width="214.6" height="118.3" rx="6" fill="#c43d1a"/>
  <rect x="620.0" y="555.2" width="214.6" height="118.3" rx="6" fill="none" stroke="rgba(255,255,255,0.15)" stroke-width="1"/>
  <text x="630.0" y="579.2" font-size="16" font-weight="700" fill="#ffffff">HTML</text>
  <text x="630.0" y="598.2" font-size="16" font-weight="700" fill="#ffffff">/ Reveal.js</text>
  <text x="630.0" y="619.2" font-size="14" font-weight="600" fill="rgba(255,255,255,0.85)">5%</text>
  <text x="630.0" y="641.2" font-size="10" fill="rgba(255,255,255,0.7)">Slides</text>
  <rect x="837.6" y="409.7" width="95.9" height="157.1" rx="6" fill="#6b6ea6"/>
  <rect x="837.6" y="409.7" width="95.9" height="157.1" rx="6" fill="none" stroke="rgba(255,255,255,0.15)" stroke-width="1"/>
  <text x="847.6" y="433.7" font-size="16" font-weight="700" fill="#ffffff">PHP / Nginx</text>
  <text x="847.6" y="454.7" font-size="14" font-weight="600" fill="rgba(255,255,255,0.85)">3%</text>
  <text x="847.6" y="476.7" font-size="10" fill="rgba(255,255,255,0.7)">Web Server</text>
  <text x="847.6" y="495.7" font-size="10" font-style="italic" fill="rgba(255,255,255,0.7)">compose-php</text>
  <rect x="837.6" y="569.8" width="95.9" height="103.7" rx="6" fill="#2b5ea7"/>
  <rect x="837.6" y="569.8" width="95.9" height="103.7" rx="6" fill="none" stroke="rgba(255,255,255,0.15)" stroke-width="1"/>
  <text x="847.6" y="590.8" font-size="13" font-weight="700" fill="#ffffff">Python</text>
  <text x="847.6" y="606.8" font-size="13" font-weight="700" fill="#ffffff">/ LaTeX</text>
  <text x="847.6" y="624.8" font-size="12" font-weight="600" fill="rgba(255,255,255,0.85)">2%</text>
  <text x="847.6" y="644.8" font-size="9" fill="rgba(255,255,255,0.7)">Blueprint</text>
</svg>