<svg xmlns="http://www.w3.org/2000/svg" viewBox="0 0 960 700" width="960" height="700">
  <defs>
    <style>
      text { font-family: 'Segoe UI', 'Helvetica Neue', Arial, sans-serif; }
    </style>
  </defs>

  <rect width="960" height="700" rx="14" fill="#f8f9fb" stroke="#d0d7de" stroke-width="1"/>

  <text x="30" y="40" font-size="26" font-weight="700" fill="#1a1a2e">🧠 gjchentw — Technical Skills Treemap</text>
  <text x="30" y="62" font-size="13" fill="#57606a">Public GitHub activity (2025-09-15 → 2026-03-15) · 12 repositories · 168 commits</text>
  <text x="30" y="82" font-size="11" fill="#8b949e">Squarified Treemap (Square Pie Chart): area ∝ weighted skill share</text>

  <!-- Left column (450x560) -->
  <!-- Lean 4 / Mathlib — 26% -->
  <rect x="30" y="100" width="450" height="291.2" rx="6" fill="#495bb8"/>
  <text x="44" y="134" font-size="24" font-weight="700" fill="#ffffff">Lean 4 / Mathlib</text>
  <text x="44" y="162" font-size="20" font-weight="600" fill="rgba(255,255,255,0.9)">26%</text>
  <text x="44" y="186" font-size="12" fill="rgba(255,255,255,0.75)">NaturalNumberGame · Monopylean</text>
  <text x="44" y="202" font-size="12" fill="rgba(255,255,255,0.75)">lean-triangle · lean-pythagorean · mylean</text>

  <!-- JavaScript / PWA / SQLite WASM — 24% -->
  <rect x="30" y="395.2" width="450" height="268.8" rx="6" fill="#d4a017"/>
  <text x="44" y="429.2" font-size="23" font-weight="700" fill="#1a1a2e">JavaScript / PWA / SQLite WASM</text>
  <text x="44" y="456.2" font-size="20" font-weight="600" fill="rgba(26,26,46,0.8)">24%</text>
  <text x="44" y="480.2" font-size="12" fill="rgba(26,26,46,0.65)">mmex-pwa · opfs-cloud-file</text>
  <text x="44" y="496.2" font-size="12" fill="rgba(26,26,46,0.65)">Web Worker · Vite · Jest · npm</text>

  <!-- Right top row (450x369.6) -->
  <!-- HTML / Reveal.js — 13% -->
  <rect x="480" y="100" width="177.3" height="369.6" rx="6" fill="#c43d1a"/>
  <text x="492" y="132" font-size="20" font-weight="700" fill="#ffffff">HTML</text>
  <text x="492" y="154" font-size="20" font-weight="700" fill="#ffffff">/ Reveal.js</text>
  <text x="492" y="178" font-size="17" font-weight="600" fill="rgba(255,255,255,0.86)">13%</text>
  <text x="492" y="202" font-size="11" fill="rgba(255,255,255,0.72)">slide-sdd-spec-kit</text>

  <!-- Java / Gradle — 11% -->
  <rect x="661.3" y="100" width="150" height="369.6" rx="6" fill="#c75b1e"/>
  <text x="673.3" y="132" font-size="20" font-weight="700" fill="#ffffff">Java</text>
  <text x="673.3" y="154" font-size="20" font-weight="700" fill="#ffffff">/ Gradle</text>
  <text x="673.3" y="178" font-size="17" font-weight="600" fill="rgba(255,255,255,0.86)">11%</text>
  <text x="673.3" y="202" font-size="11" fill="rgba(255,255,255,0.72)">Welcome</text>

  <!-- Go / Gin — 9% -->
  <rect x="815.3" y="100" width="114.7" height="369.6" rx="6" fill="#00a29a"/>
  <text x="823.3" y="132" font-size="19" font-weight="700" fill="#ffffff">Go</text>
  <text x="823.3" y="154" font-size="19" font-weight="700" fill="#ffffff">/ Gin</text>
  <text x="823.3" y="178" font-size="16" font-weight="600" fill="rgba(255,255,255,0.86)">9%</text>
  <text x="823.3" y="200" font-size="10" fill="rgba(255,255,255,0.72)">go-kittyd</text>

  <!-- Right bottom row (450x190.4) -->
  <!-- Shell / CI-CD — 7% -->
  <rect x="480" y="473.6" width="185.3" height="190.4" rx="6" fill="#3d8b37"/>
  <text x="492" y="503.6" font-size="20" font-weight="700" fill="#ffffff">Shell / CI-CD</text>
  <text x="492" y="527.6" font-size="16" font-weight="600" fill="rgba(255,255,255,0.86)">7%</text>
  <text x="492" y="549.6" font-size="11" fill="rgba(255,255,255,0.72)">Actions workflows</text>

  <!-- Python / LaTeX — 4% -->
  <rect x="669.3" y="473.6" width="105.9" height="190.4" rx="6" fill="#2b5ea7"/>
  <text x="677.3" y="501.6" font-size="16" font-weight="700" fill="#ffffff">Python</text>
  <text x="677.3" y="521.6" font-size="16" font-weight="700" fill="#ffffff">/ LaTeX</text>
  <text x="677.3" y="542.6" font-size="14" font-weight="600" fill="rgba(255,255,255,0.86)">4%</text>

  <!-- Docker / DevContainers — 3% -->
  <rect x="779.2" y="473.6" width="79.4" height="190.4" rx="6" fill="#1a73c7"/>
  <text x="785.2" y="499.6" font-size="13" font-weight="700" fill="#ffffff">Docker</text>
  <text x="785.2" y="516.6" font-size="13" font-weight="700" fill="#ffffff">/ DevC</text>
  <text x="785.2" y="535.6" font-size="13" font-weight="600" fill="rgba(255,255,255,0.86)">3%</text>

  <!-- Markdown / SVG Docs — 2% -->
  <rect x="862.6" y="473.6" width="52.9" height="190.4" rx="6" fill="#6b6ea6"/>
  <text x="867" y="497.6" font-size="11" font-weight="700" fill="#ffffff">Docs</text>
  <text x="867" y="512.6" font-size="11" font-weight="700" fill="#ffffff">MD/SVG</text>
  <text x="867" y="528.6" font-size="11" font-weight="600" fill="rgba(255,255,255,0.86)">2%</text>

  <!-- PHP / Nginx — 1% -->
  <rect x="919.5" y="473.6" width="10.5" height="190.4" rx="4" fill="#7f5ab6"/>
  <text x="914" y="670" font-size="10" font-weight="600" fill="#6b7280" text-anchor="end">PHP/Nginx 1%</text>
</svg>
